<?xml version="1.0" ?>
<!-- Uploaded to: SVG Repo, www.svgrepo.com, Generator: SVG Repo Mixer Tools -->
<svg width="800px" height="800px" viewBox="0 0 24 24" version="1.1" xml:space="preserve" xmlns="http://www.w3.org/2000/svg" xmlns:xlink="http://www.w3.org/1999/xlink">
<style type="text/css">
	.st0{display:none;}
	.st1{display:inline;}
	.st2{opacity:0.2;fill:none;stroke:#000000;stroke-width:5.000000e-02;stroke-miterlimit:10;}
</style>
<g class="st0" id="grid_system"/>
<g id="_icons">
<path d="M5,11c0.6,0,1-0.4,1-1V9h2v1c0,0.6,0.4,1,1,1s1-0.4,1-1V7c0-1.7-1.3-3-3-3S4,5.3,4,7v3C4,10.6,4.4,11,5,11z M7,6   c0.6,0,1,0.4,1,1H6C6,6.4,6.4,6,7,6z"/>
<path d="M5,16h1.6l-2.3,2.3C4,18.6,3.9,19,4.1,19.4C4.2,19.8,4.6,20,5,20h4c0.6,0,1-0.4,1-1s-0.4-1-1-1H7.4l2.3-2.3   c0.3-0.3,0.4-0.7,0.2-1.1C9.8,14.2,9.4,14,9,14H5c-0.6,0-1,0.4-1,1S4.4,16,5,16z"/>
<path d="M16.3,18.7c0.2,0.2,0.5,0.3,0.7,0.3s0.5-0.1,0.7-0.3l2-2c0.4-0.4,0.4-1,0-1.4s-1-0.4-1.4,0L18,15.6V6c0-0.6-0.4-1-1-1   s-1,0.4-1,1v9.6l-0.3-0.3c-0.4-0.4-1-0.4-1.4,0s-0.4,1,0,1.4L16.3,18.7z"/>
</g>
</svg>